<svg xmlns="http://www.w3.org/2000/svg" width="66" height="56" viewBox="0 0 66 56">
  <path d="M0.962,95.2009411 L27.962,120.200941 C28.539,120.734941 29.27,120.999941 30,120.999941 C30.806,120.999941 31.611,120.676941 32.202,120.037941 C33.328,118.821941 33.255,116.924941 32.039,115.798941 L10.656,95.9999411 L63,95.9999411 C64.657,95.9999411 66,94.6569411 66,92.9999411 C66,91.3429411 64.657,89.9999411 63,89.9999411 L10.656,89.9999411 L32.039,70.2009411 C33.255,69.0749411 33.328,67.1779411 32.202,65.9619411 C31.075,64.7449411 29.178,64.6739411 27.963,65.7989411 L0.963,90.7989411 C0.349,91.3659411 0,92.1639411 0,92.9999411 C0,93.8359411 0.349,94.6339411 0.962,95.2009411 Z" transform="rotate(-180 33 60.5)"/>
</svg>
