<svg xmlns="http://www.w3.org/2000/svg" width="66" height="56" viewBox="0 0 66 56">
  <path d="M0.962,30.201 L27.962,55.201 C28.539,55.735 29.27,56 30,56 C30.806,56 31.611,55.677 32.202,55.038 C33.328,53.822 33.255,51.925 32.039,50.799 L10.656,31 L63,31 C64.657,31 66,29.657 66,28 C66,26.343 64.657,25 63,25 L10.656,25 L32.039,5.201 C33.255,4.075 33.328,2.178 32.202,0.962 C31.075,-0.255 29.178,-0.326 27.963,0.799 L0.963,25.799 C0.349,26.366 0,27.164 0,28 C0,28.836 0.349,29.634 0.962,30.201 Z"/>
</svg>
